<!DOCTYPE svg PUBLIC "-//W3C//DTD SVG 1.1//EN" "http://www.w3.org/Graphics/SVG/1.1/DTD/svg11.dtd">
<!-- Uploaded to: SVG Repo, www.svgrepo.com, Transformed by: SVG Repo Mixer Tools -->
<svg fill="#000000" height="800px" width="800px" version="1.1" id="Layer_1" xmlns="http://www.w3.org/2000/svg" xmlns:xlink="http://www.w3.org/1999/xlink" viewBox="0 0 512 512" xml:space="preserve">
<g id="SVGRepo_bgCarrier" stroke-width="0"/>
<g id="SVGRepo_tracerCarrier" stroke-linecap="round" stroke-linejoin="round"/>
<g id="SVGRepo_iconCarrier"> <g> <g> <path d="M468.885,398.052C497.134,355.933,512,307.127,512,256C512,114.842,397.158,0,256,0S0,114.842,0,256s114.842,256,256,256 c51.124,0,99.93-14.866,142.05-43.115l28.446,28.446c19.526,19.528,51.307,19.529,70.834,0c19.529-19.529,19.529-51.305,0-70.834 L468.885,398.052z M256,478.609c-122.746,0-222.609-99.862-222.609-222.609S133.254,33.391,256,33.391 S478.609,133.254,478.609,256c0,42.209-11.657,82.597-33.862,117.915l-24.329-24.329c16.262-28.455,24.8-60.534,24.8-93.586 c0-104.334-84.883-189.217-189.217-189.217S66.783,151.666,66.783,256S151.666,445.217,256,445.217 c33.05,0,65.129-8.537,93.582-24.799l24.33,24.33C338.593,466.953,298.207,478.609,256,478.609z M319.569,201.517l-61.054-61.054 c-6.519-6.519-17.091-6.519-23.611,0c-6.52,6.519-6.52,17.091,0,23.611l42.332,42.332l-23.611,23.611l-42.333-42.332 c-6.519-6.519-17.091-6.519-23.611,0c-6.52,6.519-6.52,17.091,0,23.611l42.332,42.332l-23.612,23.612l-42.332-42.332 c-6.519-6.519-17.091-6.519-23.611,0s-6.52,17.091,0,23.611l61.054,61.054c28.839,28.84,73.002,31.922,105.072,10.627l21.93,21.93 c-6.305,13.236-6.477,28.682-0.516,42.04c-22.137,11.59-46.721,17.656-71.998,17.656c-85.922,0-155.826-69.904-155.826-155.826 S170.077,100.174,256,100.174S411.826,170.077,411.826,256c0,25.278-6.066,49.862-17.66,72.004 c-13.358-5.96-28.802-5.79-42.04,0.515l-21.93-21.93C351.468,274.554,348.436,230.384,319.569,201.517z M295.959,295.961 c-17.992,17.991-46.067,19.37-65.604,4.55l70.154-70.154C315.317,249.879,313.966,277.954,295.959,295.961z M473.718,473.72 c-6.51,6.509-17.1,6.51-23.612,0c-8.304-8.304-80.087-80.087-88.204-88.204c-6.51-6.51-6.51-17.102,0-23.612 c6.512-6.51,17.1-6.51,23.612,0c7.988,7.988,79.98,79.98,88.204,88.204C480.228,456.618,480.228,467.211,473.718,473.72z"/> </g> </g> </g>
</svg>